<svg width="854" height="716" viewBox="0 0 854 716" fill="none" xmlns="http://www.w3.org/2000/svg">
<path d="M97 589.5C88.5 558.333 87.3 475.1 150.5 391.5C213.7 307.9 325.833 232.333 374 205C442.333 166.333 582.1 89 594.5 89C610 89 657.5 65 685.5 57C713.5 49 796 -19.5 832.5 6.99999C833.167 9.33333 833.8 14.7 831 17.5C832.167 16 835.8 13.3 841 14.5C844.667 15.6667 852.2 22.1 853 38.5C854 59 813 140.5 801 159.5C789 178.5 700 288 667 303C670.833 314.167 678.9 337 680.5 339C682.5 341.5 676.5 350 686.5 362C684.333 367.5 681.3 380.1 686.5 386.5C683.333 391 678.3 401.3 683.5 406.5C681.333 410.333 678.3 419.6 683.5 426C680.833 428.167 676 435.1 678 445.5C674.333 447.167 667.5 454.8 669.5 472C667.5 476 664.1 485.2 666.5 490C662.5 497.167 654.8 513.2 656 520C653.667 524.5 649 534.6 649 539C649 544.5 642.5 552 637.5 549.5C633.5 547.5 634.167 529 635 520C635.833 515.333 637 504.4 635 498C632.5 490 640 479.5 629.5 472C630.5 464.833 630.9 448.5 624.5 440.5C622.833 427.5 620 400.6 622 397C619.333 393.167 614.6 384.8 617 382C620 378.5 619.5 343 617 341C614.5 339 538 403.5 414 440.5C290 477.5 227.5 493 204 505.5C180.5 518 127.8 542 127 584C156.833 592.667 217.7 626.7 222.5 693.5C215 677.833 189.2 646.9 146 648.5C136.667 649.333 116.5 648.8 110.5 640C104.333 645.5 105 648 79 656C58 662.462 6.1 680.6 2.5 715C-4.66667 691.333 4.20001 633.1 97 589.5Z" stroke="black"/>
</svg>
